<svg xmlns:dc="http://purl.org/dc/elements/1.1/" xmlns:cc="http://creativecommons.org/ns#" xmlns:rdf="http://www.w3.org/1999/02/22-rdf-syntax-ns#" xmlns:svg="http://www.w3.org/2000/svg" xmlns="http://www.w3.org/2000/svg" xmlns:sodipodi="http://sodipodi.sourceforge.net/DTD/sodipodi-0.dtd" xmlns:inkscape="http://www.inkscape.org/namespaces/inkscape" width="30.862085mm" height="7.7611113mm" inkscape:version="1.1-dev (1:0.92.0+devel+202003231341+310bff5)" sodipodi:docname="drawing.svg" version="1.1" viewBox="0 0 30.862086 7.761111" id="svg3">
  <metadata id="metadata7">
    <rdf:RDF>
      <cc:Work rdf:about="">
        <dc:format>image/svg+xml</dc:format>
        <dc:type rdf:resource="http://purl.org/dc/dcmitype/StillImage"/>
        <dc:title/>
      </cc:Work>
    </rdf:RDF>
  </metadata>
  <defs id="defs5"/>
  <sodipodi:namedview id="base" bordercolor="#666666" borderopacity="1.0" inkscape:current-layer="svg3" inkscape:cx="13.886173" inkscape:cy="-0.42388662" inkscape:document-units="mm" inkscape:pageopacity="0.0" inkscape:pageshadow="2" inkscape:window-height="1015" inkscape:window-maximized="1" inkscape:window-width="1920" inkscape:window-x="0" inkscape:window-y="40" inkscape:zoom="5.6568542" pagecolor="#ffffff" showgrid="false"/>
  <rect y="0" x="0" height="7.7611113" width="30.862085" id="rect48" style="fill:#ff00ff;fill-opacity:1;fill-rule:evenodd;stroke:none;stroke-width:0.499996;stroke-opacity:1;stop-color:#000000"/>
<svg:g id="barcode" style="fill:black" transform="matrix(0.264583 0 0 0.264583 3 0)"><svg:rect x="0" y="0" id="barcode_bar1" width="1" height="24"/><svg:rect x="2" y="0" id="barcode_bar3" width="1" height="24"/><svg:rect x="5" y="0" id="barcode_bar5" width="2" height="20"/><svg:rect x="9" y="0" id="barcode_bar7" width="1" height="20"/><svg:rect x="12" y="0" id="barcode_bar9" width="1" height="20"/><svg:rect x="15" y="0" id="barcode_bar11" width="2" height="20"/><svg:rect x="18" y="0" id="barcode_bar13" width="1" height="20"/><svg:rect x="23" y="0" id="barcode_bar15" width="1" height="20"/><svg:rect x="26" y="0" id="barcode_bar17" width="3" height="20"/><svg:rect x="30" y="0" id="barcode_bar19" width="1" height="20"/><svg:rect x="32" y="0" id="barcode_bar21" width="3" height="20"/><svg:rect x="37" y="0" id="barcode_bar23" width="1" height="20"/><svg:rect x="39" y="0" id="barcode_bar25" width="1" height="20"/><svg:rect x="41" y="0" id="barcode_bar27" width="4" height="20"/><svg:rect x="46" y="0" id="barcode_bar29" width="1" height="24"/><svg:rect x="48" y="0" id="barcode_bar31" width="1" height="24"/><svg:rect x="50" y="0" id="barcode_bar33" width="1" height="20"/><svg:rect x="54" y="0" id="barcode_bar35" width="1" height="20"/><svg:rect x="57" y="0" id="barcode_bar37" width="1" height="20"/><svg:rect x="60" y="0" id="barcode_bar39" width="1" height="20"/><svg:rect x="64" y="0" id="barcode_bar41" width="3" height="20"/><svg:rect x="68" y="0" id="barcode_bar43" width="1" height="20"/><svg:rect x="71" y="0" id="barcode_bar45" width="3" height="20"/><svg:rect x="76" y="0" id="barcode_bar47" width="1" height="20"/><svg:rect x="78" y="0" id="barcode_bar49" width="2" height="20"/><svg:rect x="82" y="0" id="barcode_bar51" width="2" height="20"/><svg:rect x="85" y="0" id="barcode_bar53" width="3" height="20"/><svg:rect x="89" y="0" id="barcode_bar55" width="1" height="20"/><svg:rect x="92" y="0" id="barcode_bar57" width="1" height="24"/><svg:rect x="94" y="0" id="barcode_bar59" width="1" height="24"/><svg:text x="47" y="29" style="font-size:9px;text-align:center;text-anchor:middle" xml:space="preserve" id="barcode_text">3    123456     789019       </svg:text></svg:g></svg>